<?xml version="1.0" encoding="UTF-8" standalone="no"?>
<svg
   xmlns:dc="http://purl.org/dc/elements/1.1/"
   xmlns:cc="http://creativecommons.org/ns#"
   xmlns:rdf="http://www.w3.org/1999/02/22-rdf-syntax-ns#"
   xmlns="http://www.w3.org/2000/svg"
   xmlns:sodipodi="http://sodipodi.sourceforge.net/DTD/sodipodi-0.dtd"
   xmlns:inkscape="http://www.inkscape.org/namespaces/inkscape"
   version="1.1"
   id="Layer_1"
   x="0px"
   y="0px"
   viewBox="0 0 511.999 511.999"
   style="enable-background:new 0 0 511.999 511.999;"
   xml:space="preserve"
   inkscape:version="0.91 r13725"
   sodipodi:docname="scroll.svg"><metadata
     id="metadata4190"><rdf:RDF><cc:Work
         rdf:about=""><dc:format>image/svg+xml</dc:format><dc:type
           rdf:resource="http://purl.org/dc/dcmitype/StillImage" /></cc:Work></rdf:RDF></metadata><defs
     id="defs4188" /><sodipodi:namedview
     pagecolor="#ffffff"
     bordercolor="#666666"
     borderopacity="1"
     objecttolerance="10"
     gridtolerance="10"
     guidetolerance="10"
     inkscape:pageopacity="0"
     inkscape:pageshadow="2"
     inkscape:window-width="1139"
     inkscape:window-height="741"
     id="namedview4186"
     showgrid="false"
     inkscape:zoom="1.8437536"
     inkscape:cx="265.28761"
     inkscape:cy="129.22216"
     inkscape:window-x="2379"
     inkscape:window-y="177"
     inkscape:window-maximized="0"
     inkscape:current-layer="g4176" /><g
     id="g4170"
     transform="matrix(2.3670572,0,0,1,-349.96596,0)"><polygon
       style="fill:#f28544"
       points="289.326,413.454 222.673,413.454 256,480.107 "
       id="polygon4172" /><polygon
       style="fill:#f28544"
       points="222.673,98.108 289.326,98.108 256,31.454 "
       id="polygon4174" /></g><g
     id="g4176"
     transform="matrix(2.2475065,0,0,1,-319.36167,0)"><path
       style="fill:#314e55"
       d="m 305.273,192.653 -98.546,0 c -5.442,0 -9.855,8.408 -9.855,13.855 0,5.447 4.412,13.855 9.855,13.855 l 98.546,0 c 5.442,0 9.855,-8.408 9.855,-13.855 0,-5.447 -4.413,-13.855 -9.855,-13.855 z"
       id="path4178"
       inkscape:connector-curvature="0"
       sodipodi:nodetypes="sssssss" /><path
       style="fill:#314e55"
       d="m 305.273,291.199 -98.546,0 c -5.442,0 -9.855,8.408 -9.855,13.855 0,5.447 4.412,13.855 9.855,13.855 l 98.546,0 c 5.442,0 9.855,-8.408 9.855,-13.855 0,-5.447 -4.413,-13.855 -9.855,-13.855 z"
       id="path4180"
       inkscape:connector-curvature="0"
       sodipodi:nodetypes="sssssss" /><path
       style="fill:#314e55"
       d="m 206.727,121.817 98.546,0 c 3.416,0 6.587,-5.771 8.382,-8.677 1.795,-2.906 1.958,-6.534 0.433,-9.585 L 264.815,5.009 c -3.339,-6.679 -14.291,-6.679 -17.63,0 l -49.273,98.546 c -1.525,3.051 -1.362,6.679 0.433,9.585 1.795,2.906 4.966,8.677 8.382,8.677 z M 256,31.454 l 33.326,66.653 -66.653,0 z"
       id="path4182"
       inkscape:connector-curvature="0"
       sodipodi:nodetypes="sssccccsscccc" /><path
       style="fill:#314e55"
       d="m 305.273,389.745 -98.546,0 c -3.416,0 -6.587,5.771 -8.382,8.677 -1.795,2.906 -1.958,6.534 -0.433,9.585 l 49.273,98.546 c 1.67,3.339 5.081,5.447 8.815,5.447 3.734,0 7.146,-2.108 8.815,-5.447 l 49.273,-98.546 c 1.525,-3.051 1.362,-6.679 -0.433,-9.585 -1.795,-2.906 -4.966,-8.677 -8.382,-8.677 z M 256,480.107 l -33.326,-66.653 66.653,0 z"
       id="path4184"
       inkscape:connector-curvature="0"
       sodipodi:nodetypes="sssccsccsscccc" /></g></svg>